# xmcd
# 
# Track frame offsets:
#     150
#     15550
#     29712
#     43355
#     58847
#     74212
#     89270
#     102465
#     115339
#     129585
#     142002
#     156795
#     170857
#     185442
# 
# Disc length: 2660
# 
# Revision: 0
# Processed by: cddbd v1.5.2PL0 Copyright (c) Steve Scherf et al.
# Submitted via: fre:ac v1.0.31
# 
DISCID=dc0a620e
DTITLE=Bessie Smith - Folha Soul and Blues
DYEAR=2015
DGENRE=Blues
TTITLE0=Down Hearted Blues
TTITLE1=St. Louis Blues
TTITLE2=Reckless Blues
TTITLE3='t Ain't Nobodt's Bizness If I Do
TTITLE4=Careless Love
TTITLE5=Ain't Gonna Play No Second Fiddle
TTITLE6=Baby Won't You Please Come Home
TTITLE7=Empty Bed Blues (Parte 1)
TTITLE8=Empty Bed Blues (Parte 2)
TTITLE9=Nobody Knows You When You're Down And Out
TTITLE10=Backwater Blues
TTITLE11=Weeping Willow Blues
TTITLE12=Gimme A Pigfoot And A Bottle Of Beer
TTITLE13=Sinful Blues
EXTD=
EXTT0=
EXTT1=
EXTT2=
EXTT3=
EXTT4=
EXTT5=
EXTT6=
EXTT7=
EXTT8=
EXTT9=
EXTT10=
EXTT11=
EXTT12=
EXTT13=
PLAYORDER=
